<?xml version="1.0" encoding="UTF-8" standalone="no"?>
<!DOCTYPE svg PUBLIC "-//W3C//DTD SVG 1.1//EN" "http://www.w3.org/Graphics/SVG/1.1/DTD/svg11.dtd">
<svg width="100%" height="100%" viewBox="0 0 101 130" version="1.1" xmlns="http://www.w3.org/2000/svg" xmlns:xlink="http://www.w3.org/1999/xlink" xml:space="preserve" xmlns:serif="http://www.serif.com/" style="fill-rule:evenodd;clip-rule:evenodd;stroke-linejoin:round;stroke-miterlimit:2;">
    <g transform="matrix(1,0,0,1,-448.935,-275.349)">
        <g transform="matrix(1,0,0,1,318.922,37.6202)">
            <path d="M172.686,250.96C174.669,243.27 181.731,237.728 190.32,237.728C199.953,237.728 207.977,245.489 207.977,255.388C207.977,258.953 206.937,262.273 205.155,265.063L205.155,279.057L225.677,268.35L230.753,268.35L230.753,311.158L225.677,311.158L208.244,302.12L205.155,302.12L205.155,314.485L180.663,314.485L202.953,360.057L194.559,360.057L175.143,320.206L175.143,367.057L168.081,367.057L168.081,320.206L148.885,360.057L140.5,360.057L162.564,314.485L142.262,314.485C136.968,314.485 132.554,310.973 132.554,306.55L132.554,264.573C130.936,261.887 130.013,258.746 130.013,255.388C130.013,245.489 138.039,237.728 148.204,237.728C156.344,237.728 163.335,243.27 165.307,250.96L172.686,250.96ZM185.537,277.969C192.095,277.969 197.419,283.293 197.419,289.851C197.419,296.41 192.095,301.734 185.537,301.734C178.979,301.734 173.654,296.41 173.654,289.851C173.654,283.293 178.979,277.969 185.537,277.969ZM152.807,277.969C159.365,277.969 164.69,283.293 164.69,289.851C164.69,296.41 159.365,301.734 152.807,301.734C146.249,301.734 140.925,296.41 140.925,289.851C140.925,283.293 146.249,277.969 152.807,277.969ZM185.537,282.963C189.339,282.963 192.425,286.05 192.425,289.851C192.425,293.653 189.339,296.74 185.537,296.74C181.735,296.74 178.648,293.653 178.648,289.851C178.648,286.05 181.735,282.963 185.537,282.963ZM152.807,282.963C156.609,282.963 159.696,286.05 159.696,289.851C159.696,293.653 156.609,296.74 152.807,296.74C149.005,296.74 145.919,293.653 145.919,289.851C145.919,286.05 149.005,282.963 152.807,282.963ZM199.725,264.663C202.012,262.248 203.415,258.988 203.415,255.402C203.415,247.964 197.377,241.926 189.94,241.926C182.736,241.926 176.846,247.59 176.482,254.703L176.482,255.515L161.299,255.515C161.299,255.478 161.299,255.44 161.299,255.402C161.299,247.964 155.261,241.926 147.823,241.926C140.386,241.926 134.348,247.964 134.348,255.402C134.348,258.96 135.73,262.198 137.986,264.608L142.262,264.663L199.725,264.663Z" style="fill:rgb(203,203,203);"/>
        </g>
    </g>
</svg>
