<svg width="215" height="215" viewBox="0 0 215 215" fill="none" xmlns="http://www.w3.org/2000/svg">
<path d="M199.766 57.1207V45.0491H197.974V57.1207C197.46 57.3385 197.034 57.7368 196.769 58.2473C196.505 58.7578 196.418 59.3487 196.524 59.9188C196.63 60.4889 196.922 61.0027 197.35 61.3721C197.778 61.7415 198.315 61.9435 198.87 61.9435C199.424 61.9435 199.962 61.7415 200.39 61.3721C200.818 61.0027 201.11 60.4889 201.216 59.9188C201.321 59.3487 201.235 58.7578 200.97 58.2473C200.706 57.7368 200.28 57.3385 199.766 57.1207Z" fill="#E6E6E6"/>
<path d="M203.948 178.945H191.701V23.1503H186.921V178.945H174.674C173.223 178.945 171.786 179.245 170.445 179.826C169.104 180.408 167.886 181.261 166.859 182.335C165.833 183.41 165.019 184.686 164.464 186.091C163.908 187.495 163.622 189 163.622 190.52V190.52H215V190.52C215 189 214.714 187.495 214.159 186.091C213.603 184.686 212.789 183.41 211.763 182.335C210.737 181.261 209.518 180.408 208.177 179.826C206.836 179.244 205.399 178.945 203.948 178.945Z" fill="#E6E6E6"/>
<path d="M163.647 46.3005H214.975L211.836 5.21183C211.722 3.79501 211.105 2.47444 210.107 1.50993C209.11 0.545417 207.804 0.00678554 206.446 0H172.176C170.819 0.00678632 169.513 0.545418 168.515 1.50993C167.518 2.47444 166.901 3.79501 166.786 5.21183L163.647 46.3005Z" fill="#E6B31E"/>
<path d="M18.2502 143.136H174.916V126.384C174.916 81.148 139.776 44.3452 96.5829 44.3452C53.3903 44.3452 18.2502 81.148 18.2502 126.384V143.136Z" fill="#3F3D56"/>
<path opacity="0.2" d="M18.2502 143.136H174.916V126.384C174.916 81.148 139.776 44.3452 96.5829 44.3452C53.3903 44.3452 18.2502 81.148 18.2502 126.384V143.136Z" fill="black"/>
<path d="M38.5547 148.935H159.122C159.008 142.291 156.409 135.96 151.885 131.302C147.361 126.643 141.273 124.03 134.929 124.022H62.7481C56.4038 124.03 50.3155 126.643 45.7916 131.302C41.2677 135.96 38.6693 142.291 38.5547 148.935Z" fill="#E6B31E"/>
<path d="M24.197 146.357C37.5606 146.357 48.394 135.011 48.394 121.015C48.394 107.019 37.5606 95.6735 24.197 95.6735C10.8334 95.6735 0 107.019 0 121.015C0 135.011 10.8334 146.357 24.197 146.357Z" fill="#3F3D56"/>
<path d="M171.019 146.357C184.383 146.357 195.216 135.011 195.216 121.015C195.216 107.019 184.383 95.6735 171.019 95.6735C157.656 95.6735 146.823 107.019 146.823 121.015C146.823 135.011 157.656 146.357 171.019 146.357Z" fill="#3F3D56"/>
<path d="M152.769 133.901V143.351H41.0119V133.901H15.9946V179.958C15.9946 182.78 17.065 185.487 18.9702 187.482C20.8755 189.477 23.4595 190.598 26.1539 190.598H167.627C168.961 190.598 170.282 190.323 171.515 189.788C172.748 189.254 173.867 188.47 174.811 187.482C175.754 186.494 176.503 185.321 177.013 184.03C177.524 182.739 177.786 181.356 177.786 179.958V133.901H152.769Z" fill="#3F3D56"/>
<path opacity="0.2" d="M24.1971 126.17C26.9151 126.17 29.1185 123.862 29.1185 121.015C29.1185 118.169 26.9151 115.861 24.1971 115.861C21.479 115.861 19.2756 118.169 19.2756 121.015C19.2756 123.862 21.479 126.17 24.1971 126.17Z" fill="black"/>
<path opacity="0.2" d="M171.02 126.17C173.738 126.17 175.941 123.862 175.941 121.015C175.941 118.169 173.738 115.861 171.02 115.861C168.302 115.861 166.098 118.169 166.098 121.015C166.098 123.862 168.302 126.17 171.02 126.17Z" fill="black"/>
<path d="M105.497 41.4504C105.497 41.4504 105.98 51.0779 109.367 53.1048C112.754 55.1316 109.367 68.8129 109.367 68.8129L93.401 69.3196L92.4333 53.1048C92.4333 53.1048 94.3686 46.5175 93.401 43.4772C92.4333 40.4369 105.497 41.4504 105.497 41.4504Z" fill="#FFB8B8"/>
<path d="M123.398 175.223L117.592 182.317L126.785 191.438L131.623 181.304L123.398 175.223Z" fill="#FFB8B8"/>
<path d="M82.2732 175.223L88.0792 182.317L78.8865 191.438L74.0483 181.304L82.2732 175.223Z" fill="#FFB8B8"/>
<path d="M120.253 108.083C120.253 108.083 155.088 120.244 153.153 131.899C151.218 143.553 136.219 184.597 136.219 184.597C136.219 184.597 127.994 184.597 121.705 175.476L126.059 165.342C126.059 165.342 124.124 159.768 127.51 158.755C130.897 157.741 132.832 140.006 132.832 140.006C132.832 140.006 108.158 137.979 102.836 128.352L93.1592 104.03L120.253 108.083Z" fill="#2F2E41"/>
<path d="M85.418 108.083C85.418 108.083 50.5829 120.244 52.5182 131.899C54.4535 143.553 69.4519 184.597 69.4519 184.597C69.4519 184.597 77.6769 184.597 83.9665 175.476L79.6122 165.342C79.6122 165.342 81.5474 159.768 78.1607 158.755C74.774 157.741 72.8387 140.006 72.8387 140.006C72.8387 140.006 97.5135 137.979 102.836 128.352L112.512 104.03L85.418 108.083Z" fill="#2F2E41"/>
<path d="M125.091 187.637C125.091 187.637 129.93 183.077 130.413 186.624C130.897 190.171 129.93 204.359 129.93 204.359C129.93 204.359 134.768 215 127.511 215C120.253 215 116.866 206.893 117.834 198.785C118.802 190.678 114.447 187.637 114.447 187.637C114.447 187.637 109.125 176.49 114.447 175.476C119.769 174.463 121.705 176.996 121.705 176.996C121.705 176.996 119.769 186.117 125.091 187.637Z" fill="#2F2E41"/>
<path d="M80.5799 187.637C80.5799 187.637 75.7417 183.077 75.2579 186.624C74.774 190.171 75.7417 204.359 75.7417 204.359C75.7417 204.359 70.9035 215 78.1608 215C85.4181 215 88.8049 206.893 87.8372 198.785C86.8696 190.678 91.224 187.637 91.224 187.637C91.224 187.637 96.546 176.49 91.224 175.476C85.9019 174.463 83.9666 176.996 83.9666 176.996C83.9666 176.996 85.9019 186.117 80.5799 187.637Z" fill="#2F2E41"/>
<path d="M97.9973 47.2775C104.143 47.2775 109.125 42.0596 109.125 35.6231C109.125 29.1865 104.143 23.9686 97.9973 23.9686C91.8515 23.9686 86.8694 29.1865 86.8694 35.6231C86.8694 42.0596 91.8515 47.2775 97.9973 47.2775Z" fill="#FFB8B8"/>
<path d="M99.6907 55.6383L92.9172 50.0645L76.4673 58.1719L75.9835 104.283C75.9835 104.283 65.8233 109.35 68.7262 115.937C68.7262 115.937 77.435 117.964 81.3055 122.018C85.1761 126.072 106.948 120.498 116.141 117.457C125.333 114.417 127.752 110.87 127.752 110.87L118.56 97.1889L123.882 62.2256L107.434 50.6439L99.6907 55.6383Z" fill="#E6E6E6"/>
<path d="M111.526 27.6909C111.284 27.3463 111.062 26.9861 110.863 26.6125C110.518 25.7324 111.063 24.6952 110.553 23.8734C110.033 23.0344 108.714 22.8575 107.816 22.2875C106.432 21.4095 106.181 19.6866 104.885 18.7191C103.951 18.022 102.62 17.834 101.372 17.8738C100.124 17.9136 98.8927 18.1499 97.6444 18.1758C95.9593 18.2152 94.2874 17.8571 92.7524 17.1281L93.6733 19.0147C92.65 18.7811 91.6723 18.3661 90.7824 17.7875C90.3751 18.3167 91.1203 19.1198 90.6583 19.6161C90.4689 19.7762 90.2448 19.885 90.0058 19.9329C88.2295 20.4616 86.5569 21.3162 85.0658 22.457C84.7207 22.687 84.4351 23.0027 84.2346 23.3761C83.9945 23.9333 84.2074 24.5486 84.1892 25.141C84.1562 26.2174 83.3715 27.156 82.8148 28.1256C82.258 29.0953 81.9574 30.3524 82.7831 31.1754C82.984 31.3426 83.1766 31.5205 83.3601 31.7083C84.1875 32.7304 82.7229 34.2273 83.4288 35.3119C83.7353 35.7829 84.3636 36.0212 84.9096 36.2994C85.9554 36.8115 86.8353 37.6329 87.4409 38.6623L87.0165 35.3998C86.9942 35.3192 86.9903 35.2343 87.0049 35.1517C87.0196 35.0692 87.0525 34.9915 87.101 34.9246C87.3065 34.7052 87.7371 34.7927 88.0208 34.6474C88.3329 34.4875 88.3565 34.1207 88.3441 33.8136L88.2486 31.445C88.2056 30.3799 88.1937 30.2385 88.9427 29.3787C89.4659 28.7781 90.2891 28.4157 91.1159 28.1492C93.0053 27.5402 95.0374 27.3295 97.0461 27.1236C99.3787 26.8846 102.005 25.6992 103.817 26.9578C105.3 27.988 105.793 29.6814 106.507 31.1833C107.149 32.5332 108.798 36.5078 110.17 34.3563C111.031 33.0052 112.349 29.1953 111.526 27.6909Z" fill="#2F2E41"/>
<path d="M99.9078 32.2423C99.862 32.2424 99.818 32.2614 99.7856 32.2954C99.7532 32.3293 99.7349 32.3753 99.7349 32.4233V37.3028C99.7349 37.3508 99.7532 37.3968 99.7856 37.4307C99.818 37.4647 99.862 37.4837 99.9078 37.4838H107.928C107.974 37.4837 108.018 37.4647 108.05 37.4307C108.083 37.3968 108.101 37.3508 108.101 37.3028V32.4233C108.101 32.3753 108.083 32.3293 108.05 32.2954C108.018 32.2614 107.974 32.2424 107.928 32.2423L99.9078 32.2423Z" fill="#3F3D56"/>
<path d="M100.804 32.6726C100.719 32.6727 100.637 32.7083 100.576 32.7716C100.516 32.8348 100.482 32.9206 100.482 33.01V36.716C100.482 36.8055 100.516 36.8912 100.576 36.9545C100.637 37.0178 100.719 37.0533 100.804 37.0535H107.032C107.117 37.0533 107.199 37.0178 107.259 36.9545C107.32 36.8912 107.354 36.8055 107.354 36.716V33.01C107.354 32.9206 107.32 32.8348 107.259 32.7716C107.199 32.7083 107.117 32.6727 107.032 32.6726H100.804Z" fill="#FF6584"/>
<path d="M99.998 33.8496H95.8203V34.863H99.998V33.8496Z" fill="#3F3D56"/>
<path d="M88.5505 32.2423C88.5047 32.2424 88.4608 32.2615 88.4284 32.2954C88.396 32.3293 88.3778 32.3753 88.3777 32.4233V37.3028C88.3778 37.3507 88.396 37.3967 88.4284 37.4307C88.4608 37.4646 88.5047 37.4837 88.5505 37.4838H96.5708C96.6166 37.4837 96.6606 37.4646 96.693 37.4307C96.7253 37.3967 96.7436 37.3507 96.7437 37.3028V32.4233C96.7436 32.3753 96.7253 32.3293 96.693 32.2954C96.6606 32.2615 96.6166 32.2424 96.5708 32.2423L88.5505 32.2423Z" fill="#3F3D56"/>
<path d="M89.4471 32.6726C89.3617 32.6727 89.2797 32.7083 89.2193 32.7715C89.1589 32.8348 89.1249 32.9206 89.1248 33.01V36.716C89.1249 36.8055 89.1589 36.8913 89.2193 36.9545C89.2797 37.0178 89.3617 37.0534 89.4471 37.0535H95.6746C95.76 37.0534 95.842 37.0178 95.9024 36.9545C95.9628 36.8913 95.9968 36.8055 95.9969 36.716V33.01C95.9968 32.9206 95.9628 32.8348 95.9024 32.7715C95.842 32.7083 95.76 32.6727 95.6746 32.6726H89.4471Z" fill="#E6B31E"/>
<path d="M84.1665 93.1484H111.946C113.055 93.1484 114.119 93.6099 114.903 94.4312C115.688 95.2526 116.128 96.3666 116.128 97.5282H79.9846C79.9846 96.3666 80.4252 95.2526 81.2095 94.4312C81.9937 93.6099 83.0574 93.1484 84.1665 93.1484Z" fill="#3F3D56"/>
<path d="M113.888 92.8356C113.725 92.8363 113.564 92.8651 113.41 92.9208C113.357 92.6986 113.229 92.5044 113.049 92.3747C112.869 92.245 112.649 92.1889 112.432 92.2169C112.216 92.2449 112.016 92.3552 111.871 92.5268C111.727 92.6984 111.647 92.9195 111.647 93.1484C111.647 93.1531 111.649 93.1574 111.649 93.1621C111.537 93.1732 111.426 93.1972 111.319 93.2336C111.289 93.1073 111.234 92.9889 111.157 92.886C111.081 92.7831 110.985 92.6979 110.876 92.6358C111.163 92.4695 111.39 92.2092 111.523 91.8948C111.69 91.9122 111.86 91.8925 112.02 91.8367C112.18 91.7809 112.327 91.6904 112.452 91.5711C112.576 91.4518 112.676 91.3064 112.743 91.1443C112.81 90.9821 112.844 90.807 112.842 90.6303C112.84 90.4535 112.803 90.2791 112.733 90.1185C112.662 89.9579 112.56 89.8146 112.434 89.6979C112.307 89.5813 112.158 89.494 111.997 89.4417C111.836 89.3894 111.666 89.3732 111.498 89.3943C111.335 89.3951 111.174 89.4238 111.02 89.4795C110.993 89.3565 110.942 89.2406 110.87 89.1388C110.799 89.0371 110.708 88.9515 110.604 88.8874C110.5 88.8232 110.385 88.7818 110.265 88.7657C110.146 88.7495 110.024 88.7589 109.908 88.7932C109.792 88.8276 109.684 88.8863 109.59 88.9657C109.496 89.0451 109.418 89.1436 109.362 89.2552C109.305 89.3668 109.271 89.4893 109.261 89.6153C109.251 89.7412 109.265 89.8679 109.303 89.9879C109.267 90.0139 109.234 90.0431 109.201 90.0722C109.032 89.9199 108.812 89.8434 108.59 89.8593C108.475 89.5138 108.248 89.2217 107.948 89.034C107.648 88.8464 107.295 88.7753 106.95 88.8332C106.605 88.891 106.29 89.0741 106.061 89.3505C105.832 89.6268 105.704 89.9786 105.697 90.3444C105.578 90.3543 105.459 90.379 105.345 90.418C105.332 90.3651 105.315 90.3134 105.293 90.2636C105.411 90.1547 105.506 90.021 105.572 89.8712C105.637 89.7215 105.672 89.559 105.673 89.3943C105.652 89.0421 105.499 88.7129 105.247 88.4785C104.996 88.2441 104.665 88.1235 104.329 88.143C104.166 88.1437 104.005 88.1725 103.851 88.2281C103.824 88.1051 103.773 87.9892 103.701 87.8875C103.63 87.7857 103.539 87.7002 103.435 87.636C103.331 87.5719 103.216 87.5305 103.096 87.5143C102.977 87.4981 102.855 87.5075 102.739 87.5419C102.623 87.5762 102.515 87.6349 102.421 87.7143C102.327 87.7937 102.249 87.8922 102.193 88.0038C102.136 88.1155 102.102 88.238 102.092 88.3639C102.082 88.4898 102.096 88.6166 102.134 88.7365C101.946 88.8733 101.791 89.0537 101.68 89.2636C101.569 89.4735 101.506 89.7074 101.496 89.947C101.483 89.9587 101.469 89.9682 101.457 89.9807C101.479 89.8914 101.491 89.7995 101.491 89.7072C101.47 89.355 101.317 89.0258 101.066 88.7913C100.814 88.5569 100.484 88.4363 100.147 88.4558C99.9846 88.4565 99.8232 88.4853 99.6695 88.541C99.6419 88.418 99.5908 88.3021 99.5193 88.2003C99.4477 88.0985 99.3572 88.013 99.2533 87.9489C99.1493 87.8847 99.034 87.8433 98.9144 87.8271C98.7947 87.811 98.6731 87.8203 98.557 87.8547C98.4409 87.8891 98.3326 87.9477 98.2388 88.0271C98.1449 88.1065 98.0674 88.205 98.0108 88.3167C97.9543 88.4283 97.92 88.5508 97.9099 88.6767C97.8998 88.8027 97.9142 88.9294 97.9522 89.0494C97.7539 89.1929 97.5918 89.3846 97.4799 89.6082C97.3679 89.8317 97.3094 90.0804 97.3094 90.3328C97.3094 90.5853 97.3679 90.8339 97.4799 91.0575C97.5918 91.2811 97.7539 91.4728 97.9522 91.6163C97.8917 91.7981 97.8917 91.996 97.9522 92.1778C97.8025 92.2872 97.673 92.4241 97.5701 92.5819C97.5148 92.3718 97.3909 92.1886 97.2201 92.0641C97.0493 91.9396 96.8422 91.8817 96.6349 91.9005C96.4275 91.9193 96.233 92.0135 96.0851 92.1668C95.9372 92.3202 95.8452 92.5229 95.8251 92.7399C95.7054 92.6664 95.576 92.6116 95.4411 92.5774C95.6831 92.4101 95.8736 92.173 95.9897 91.8948C96.1576 91.9122 96.3272 91.8925 96.4874 91.8367C96.6475 91.7809 96.7946 91.6904 96.9192 91.5711C97.0437 91.4518 97.1428 91.3064 97.21 91.1443C97.2772 90.9821 97.3111 90.807 97.3094 90.6303C97.3077 90.4535 97.2704 90.2791 97.2 90.1185C97.1296 89.9579 97.0277 89.8146 96.9008 89.6979C96.774 89.5813 96.6252 89.494 96.464 89.4417C96.3027 89.3894 96.1328 89.3732 95.9653 89.3943C95.8026 89.3951 95.6413 89.4238 95.4876 89.4795C95.46 89.3565 95.4089 89.2406 95.3373 89.1388C95.2658 89.0371 95.1753 88.9515 95.0714 88.8874C94.9674 88.8232 94.8521 88.7818 94.7324 88.7657C94.6128 88.7495 94.4912 88.7589 94.3751 88.7932C94.259 88.8276 94.1508 88.8863 94.0569 88.9657C93.963 89.0451 93.8855 89.1436 93.829 89.2552C93.7724 89.3668 93.7381 89.4893 93.728 89.6153C93.7179 89.7412 93.7323 89.8679 93.7703 89.9879C93.7512 90.0018 93.7339 90.0183 93.7154 90.0331C93.6688 90.0286 93.6235 90.02 93.5756 90.02C93.413 90.0208 93.2516 90.0495 93.0979 90.1052C93.0923 90.0816 93.083 90.0597 93.0757 90.0368C93.1046 89.8976 93.1023 89.7532 93.0689 89.615C93.0356 89.4768 92.9721 89.3486 92.8835 89.2404C92.7948 89.1323 92.6834 89.0471 92.5581 88.9917C92.4327 88.9362 92.2968 88.9119 92.161 88.9208C92.0832 88.6939 91.9563 88.489 91.7904 88.322C91.6244 88.155 91.4238 88.0305 91.2043 87.9582C90.9847 87.8859 90.7522 87.8677 90.5248 87.9052C90.2975 87.9426 90.0815 88.0346 89.8937 88.174C89.706 88.3134 89.5515 88.4964 89.4425 88.7087C89.3335 88.921 89.2729 89.1568 89.2653 89.3977C89.2578 89.6386 89.3036 89.8781 89.3991 90.0974C89.4946 90.3167 89.6373 90.5099 89.8159 90.6619C89.7131 90.6742 89.6118 90.6973 89.5134 90.7309C89.4781 90.5783 89.4065 90.4377 89.3053 90.3219C89.2041 90.2062 89.0766 90.1191 88.9346 90.0689C88.7926 90.0187 88.6408 90.0069 88.4933 90.0347C88.3458 90.0624 88.2074 90.1288 88.091 90.2277C87.9579 90.0621 87.7914 89.9295 87.6034 89.8395C87.4154 89.7495 87.2107 89.7043 87.004 89.7072C86.8414 89.7079 86.68 89.7367 86.5263 89.7923C86.4988 89.6693 86.4477 89.5534 86.3761 89.4517C86.3046 89.3499 86.2141 89.2644 86.1102 89.2002C86.0062 89.1361 85.8909 89.0947 85.7712 89.0785C85.6516 89.0623 85.53 89.0717 85.4139 89.1061C85.2978 89.1404 85.1895 89.1991 85.0957 89.2785C85.0018 89.3579 84.9242 89.4564 84.8677 89.568C84.8112 89.6797 84.7769 89.8022 84.7668 89.9281C84.7567 90.054 84.7711 90.1808 84.8091 90.3007C84.6108 90.4443 84.4488 90.6361 84.3368 90.8596C84.2249 91.0831 84.1664 91.3318 84.1663 91.5842C84.1663 91.5891 84.1676 91.5935 84.1677 91.5983C83.9559 91.5647 83.7394 91.5892 83.5393 91.6694C83.5117 91.5464 83.4606 91.4305 83.3891 91.3287C83.3175 91.2269 83.227 91.1414 83.1231 91.0773C83.0191 91.0131 82.9038 90.9717 82.7841 90.9555C82.6645 90.9394 82.5429 90.9487 82.4268 90.9831C82.3107 91.0175 82.2024 91.0762 82.1086 91.1556C82.0147 91.2349 81.9372 91.3334 81.8807 91.4451C81.8241 91.5567 81.7898 91.6792 81.7797 91.8051C81.7696 91.9311 81.784 92.0578 81.822 92.1778C81.5339 92.382 81.3233 92.6856 81.2268 93.0356C81.1303 93.3856 81.154 93.76 81.2938 94.0937C81.4336 94.4273 81.6806 94.6991 81.9919 94.8617C82.3031 95.0244 82.659 95.0676 82.9976 94.9839C83.0515 95.3103 83.2033 95.6102 83.4309 95.8401C83.6586 96.0701 83.9503 96.218 84.2637 96.2626C84.5771 96.3072 84.8959 96.2461 85.1739 96.0881C85.4518 95.9301 85.6745 95.6835 85.8096 95.384C86.8855 95.5305 87.9775 95.479 89.0364 95.2317C89.1351 95.5281 89.317 95.7863 89.5581 95.9726C89.7993 96.1589 90.0886 96.2646 90.3881 96.2758C90.6875 96.2871 90.9833 96.2034 91.2366 96.0357C91.4899 95.868 91.689 95.6242 91.8078 95.336C92.0256 95.3315 92.2396 95.276 92.4343 95.1737C92.5706 95.426 92.7715 95.6334 93.0142 95.7726C93.257 95.9119 93.5321 95.9774 93.8085 95.9617C94.0849 95.9461 94.3516 95.8499 94.5787 95.6841C94.8057 95.5183 94.984 95.2894 95.0936 95.0232C95.4258 94.9572 95.7696 95.0152 96.0652 95.1871C96.3609 95.3589 96.5897 95.6338 96.712 95.964C96.9118 95.6776 97.1688 95.4402 97.4651 95.2685C97.7614 95.0968 98.0899 94.9947 98.4277 94.9696C98.7279 95.0572 99.0471 95.0416 99.3382 94.9252C99.6293 94.8088 99.8771 94.5976 100.045 94.3227C99.9512 94.7036 99.9979 95.1076 100.176 95.4541C100.354 95.8006 100.65 96.064 101.005 96.1919C101.361 96.3198 101.749 96.3027 102.093 96.1441C102.436 95.9854 102.71 95.6969 102.86 95.336C103.078 95.3315 103.292 95.276 103.486 95.1737C103.623 95.426 103.824 95.6334 104.066 95.7726C104.309 95.9119 104.584 95.9774 104.861 95.9617C105.137 95.9461 105.404 95.8499 105.631 95.6841C105.858 95.5183 106.036 95.2894 106.146 95.0232C106.364 95.0186 106.578 94.9632 106.772 94.8608C106.877 95.0568 107.022 95.2266 107.196 95.3582C107.37 95.4898 107.569 95.5801 107.78 95.6229C107.991 95.6656 108.208 95.6598 108.416 95.6059C108.624 95.5519 108.819 95.451 108.986 95.3103C109.038 95.6095 109.173 95.8863 109.373 96.1065C109.573 96.3267 109.831 96.4807 110.114 96.5494C110.397 96.6181 110.693 96.5986 110.965 96.4932C111.237 96.3878 111.474 96.2012 111.647 95.9564C111.826 96.1003 112.034 96.1994 112.256 96.2462C112.477 96.2929 112.706 96.2862 112.924 96.2263C113.143 96.1665 113.345 96.0552 113.517 95.9009C113.688 95.7466 113.823 95.5534 113.912 95.336C114.08 95.3535 114.25 95.3337 114.41 95.2779C114.57 95.2222 114.717 95.1317 114.842 95.0124C114.966 94.8931 115.065 94.7476 115.132 94.5855C115.2 94.4234 115.234 94.2482 115.232 94.0715C115.23 93.8948 115.193 93.7204 115.122 93.5597C115.052 93.3991 114.95 93.2558 114.823 93.1392C114.696 93.0226 114.548 92.9353 114.386 92.8829C114.225 92.8306 114.055 92.8145 113.888 92.8356L113.888 92.8356ZM87.1898 92.1899C87.1883 92.1975 87.1872 92.2052 87.1857 92.2128C87.1748 92.2124 87.1644 92.2099 87.1534 92.2099C87.1088 92.2111 87.0643 92.2158 87.0203 92.2239C87.0228 92.2183 87.0262 92.2133 87.0285 92.2076C87.0826 92.2048 87.1364 92.1989 87.1898 92.1899ZM99.6695 91.6694C99.6651 91.6512 99.6577 91.6344 99.6523 91.6166C99.8804 91.451 100.06 91.2224 100.172 90.9562C100.368 90.9551 100.562 90.9107 100.741 90.8259C100.92 90.741 101.08 90.6176 101.21 90.4637C101.199 90.5236 101.193 90.5846 101.193 90.6457C101.194 90.7412 101.209 90.8358 101.238 90.9264C100.982 91.1137 100.787 91.3802 100.683 91.6888C100.358 91.5564 99.9987 91.5495 99.6695 91.6694V91.6694ZM108.616 91.786C108.615 91.7669 108.618 91.7471 108.616 91.7281C108.654 91.7279 108.692 91.7252 108.73 91.72C108.788 91.9224 108.885 92.1102 109.015 92.272C108.987 92.2803 108.957 92.2853 108.929 92.2951C108.881 92.0939 108.771 91.915 108.616 91.786Z" fill="#F9A825"/>
<path d="M82.9936 94.7126C82.5699 94.7126 82.1506 94.803 81.7614 94.9783C81.3721 95.1536 81.021 95.4101 80.7296 95.7322C80.4381 96.0542 80.2124 96.4351 80.0662 96.8516C79.9199 97.2681 79.8563 97.7114 79.879 98.1545L81.9017 127.285C81.9444 128.12 82.2911 128.906 82.8705 129.481C83.4499 130.056 84.2179 130.377 85.0163 130.377H111.096C111.895 130.377 112.663 130.056 113.242 129.481C113.822 128.906 114.168 128.12 114.211 127.285L116.234 98.1545C116.256 97.7114 116.193 97.2681 116.047 96.8516C115.9 96.4351 115.675 96.0542 115.383 95.7322C115.092 95.4101 114.741 95.1536 114.351 94.9783C113.962 94.803 113.543 94.7126 113.119 94.7126H82.9936Z" fill="#3F3D56"/>
<path d="M86.2573 94.7126H84.4651V130.377H86.2573V94.7126Z" fill="#E6B31E"/>
<path d="M91.3354 94.7126H89.5432V130.377H91.3354V94.7126Z" fill="#E6B31E"/>
<path d="M96.4133 94.7126H94.6211V130.377H96.4133V94.7126Z" fill="#E6B31E"/>
<path d="M101.491 94.7126H99.6992V130.377H101.491V94.7126Z" fill="#E6B31E"/>
<path d="M106.57 94.7126H104.777V130.377H106.57V94.7126Z" fill="#E6B31E"/>
<path d="M111.647 94.7126H109.855V130.377H111.647V94.7126Z" fill="#E6B31E"/>
<path d="M109.851 112.39L104.045 115.937C104.045 115.937 90.0146 128.098 99.691 130.125C109.367 132.152 111.786 121.511 111.786 121.511L115.173 117.457L109.851 112.39Z" fill="#FFB8B8"/>
<path d="M82.2732 109.857L88.0791 113.404C88.0791 113.404 102.11 125.565 92.4335 127.592C82.757 129.619 80.3379 118.978 80.3379 118.978L76.9512 114.924L82.2732 109.857Z" fill="#FFB8B8"/>
<path d="M117.592 61.719L123.882 62.2257C123.882 62.2257 128.72 66.7861 128.236 72.8667C128.236 72.8667 132.591 86.0413 131.623 91.6151C131.623 91.6151 132.591 100.736 131.139 104.283C129.688 107.83 117.592 121.511 117.592 121.511C117.592 121.511 106.464 112.39 106.948 111.884L121.463 96.6823L114.206 86.548L117.592 61.719Z" fill="#E6E6E6"/>
<path d="M76.4674 58.1719L76.2255 58.4252C76.2255 58.4252 65.3395 63.239 65.8233 69.3196C65.8233 69.3196 61.4689 82.4942 62.4366 88.068C62.4366 88.068 61.4689 97.1889 62.9204 100.736C64.3719 104.283 76.4674 117.964 76.4674 117.964C76.4674 117.964 87.5953 108.843 87.1114 108.337L72.5968 93.1352L79.8541 83.0009L76.4674 58.1719Z" fill="#E6E6E6"/>
</svg>
